<?xml version="1.0" encoding="utf-8"?>
<!-- Generator: Adobe Illustrator 26.3.1, SVG Export Plug-In . SVG Version: 6.00 Build 0)  -->
<svg version="1.1" id="Layer_1" xmlns="http://www.w3.org/2000/svg" xmlns:xlink="http://www.w3.org/1999/xlink" x="0px" y="0px"
	 viewBox="0 0 170.43 60.2" style="enable-background:new 0 0 170.43 60.2;" xml:space="preserve">
<style type="text/css">
	.st0{fill:#A767AA;}
	.st1{fill:#FFFFFF;}
</style>
<g>
	<path class="st0" d="M99.19,19.74c-1.34-1.38-2.01-3.05-2.01-5s0.66-3.6,1.98-4.97c1.32-1.36,2.93-2.04,4.84-2.04
		c1.91,0,3.52,0.68,4.84,2.04c1.32,1.36,1.98,3.02,1.98,4.97s-0.67,3.62-2.01,5c-1.34,1.38-2.95,2.07-4.81,2.07
		C102.14,21.81,100.53,21.12,99.19,19.74z"/>
	<g>
		<g>
			<polygon class="st1" points="99.01,59.65 107.3,59.29 109.13,24.68 97.79,24.68 			"/>
			<path class="st1" d="M27.39,22.3c-2.78-1.83-5.82-2.74-9.11-2.74c-3.33,0-6.39,0.91-9.17,2.74c-2.78,1.83-5,4.29-6.64,7.37
				C0.82,32.76,0,36.15,0,39.85c0,3.7,0.82,7.1,2.47,10.21s3.86,5.58,6.64,7.4c2.78,1.83,5.84,2.74,9.17,2.74
				c3.29,0,6.33-0.91,9.11-2.74c2.78-1.83,5-4.3,6.64-7.4c1.65-3.11,2.47-6.51,2.47-10.21c0-3.66-0.82-7.04-2.47-10.15
				C32.38,26.6,30.17,24.13,27.39,22.3z M26.02,46.61c-0.85,1.63-2.01,2.92-3.47,3.87c-1.46,0.95-3.05,1.43-4.75,1.43
				c-1.71,0-3.29-0.48-4.75-1.43c-1.46-0.95-2.62-2.24-3.47-3.87c-0.85-1.62-1.28-3.41-1.28-5.36c0-1.91,0.43-3.68,1.28-5.3
				c0.85-1.62,2.01-2.91,3.47-3.87c1.46-0.95,3.05-1.43,4.75-1.43c1.71,0,3.29,0.48,4.75,1.43c1.46,0.95,2.62,2.25,3.47,3.87
				c0.85,1.63,1.28,3.39,1.28,5.3C27.3,43.2,26.87,44.99,26.02,46.61z"/>
			<path class="st1" d="M61.42,20.99c-1.42-0.95-2.95-1.43-4.57-1.43c-1.3,0-2.67,0.33-4.11,0.97c-1.44,0.65-3.08,1.69-4.91,3.11
				v-5.85l-11.45,2.86l2.68,37.41h8.77V34c2.84-2.72,5.16-4.08,6.95-4.08c0.81,0,1.58,0.4,2.32,1.19c0.73,0.79,1.56,2.14,2.5,4.05
				L65.2,25.1C64.1,23.32,62.84,21.95,61.42,20.99z"/>
			<path class="st1" d="M90.36,22.12c-2.11-1.75-4.43-2.62-6.95-2.62c-2.28,0-4.41,0.75-6.4,2.25L77.69,0H64.4l3.84,59.41h7.68
				l0.12-3.66c2.27,2.03,4.73,3.05,7.37,3.05c2.52,0,4.83-0.87,6.95-2.62c2.11-1.75,3.78-4.12,5-7.13c1.22-3.01,1.83-6.32,1.83-9.93
				c0-3.57-0.61-6.86-1.83-9.87C94.14,26.24,92.47,23.87,90.36,22.12z M87.31,43.26c-0.49,1.54-1.14,2.78-1.95,3.72
				c-0.81,0.93-1.67,1.4-2.56,1.4c-0.85,0-1.68-0.47-2.47-1.4c-0.79-0.93-1.43-2.18-1.92-3.75c-0.49-1.56-0.73-3.22-0.73-4.97
				c0-1.75,0.24-3.4,0.73-4.97c0.49-1.56,1.13-2.82,1.92-3.78c0.79-0.95,1.61-1.43,2.47-1.43c0.89,0,1.75,0.47,2.56,1.4
				c0.81,0.93,1.46,2.18,1.95,3.75c0.49,1.56,0.73,3.24,0.73,5.03C88.04,40.05,87.8,41.72,87.31,43.26z"/>
			<path class="st1" d="M128.11,51.99c-0.08,0-0.19-0.94-0.32-2.8c-0.14-1.86-0.16-3.58-0.06-5.16c0.29-4.87,1.18-11.47,2.69-19.8
				l8.13-0.13l0.48-8.15l-7.18-0.3c0.64-3.99,1.04-7.24,1.18-9.76c0.07-1.26,0.08-2.38,0.01-3.36l-13.32-0.78
				c0.58,2.6,0.69,7.02,0.32,13.26l-7.85-0.4l1.85,10.06l5.38-0.17l-0.46,6.75c-0.4,6.77-0.39,12.21,0.02,16.3
				c0.41,4.09,1.29,7.14,2.64,9.13c1.35,1.99,3.24,3.06,5.67,3.2c0.85,0.05,1.75-0.05,2.7-0.3c0.95-0.25,2.18-0.68,3.68-1.28
				l-3.23-7.33C129.13,51.67,128.35,52.01,128.11,51.99z"/>
			<polygon class="st1" points="170.43,19.8 164.28,19.5 164.34,19.5 141.55,17.73 140.7,30.65 153.62,28.88 136.92,59.59 
				168.24,59.53 168.24,47.34 151.73,50.33 			"/>
		</g>
	</g>
</g>
</svg>
